<?xml version="1.0" standalone="no"?>
<!DOCTYPE svg PUBLIC "-//W3C//DTD SVG 20010904//EN"
 "http://www.w3.org/TR/2001/REC-SVG-20010904/DTD/svg10.dtd">
<svg version="1.0" xmlns="http://www.w3.org/2000/svg"
 width="260.000000pt" height="260.000000pt" viewBox="0 0 260.000000 260.000000"
 preserveAspectRatio="xMidYMid meet">
<metadata>
Created by potrace 1.14, written by Peter Selinger 2001-2017
</metadata>
<g transform="translate(0.000000,260.000000) scale(0.100000,-0.100000)"
fill="#000000" stroke="none">
<path d="M0 1300 l0 -1300 1300 0 1300 0 0 1300 0 1300 -1300 0 -1300 0 0
-1300z m1482 812 c-22 -7 -12 -48 18 -77 17 -16 34 -45 40 -64 10 -35 4 -81
-10 -81 -4 0 -10 -11 -14 -24 -6 -25 -94 -112 -103 -102 -3 3 -1 11 4 18 22
28 21 73 -2 123 -12 28 -30 57 -39 64 -9 7 -16 22 -16 33 0 26 121 148 128
129 3 -8 0 -17 -6 -19z m-804 -98 l7 -99 112 108 c61 59 115 107 119 107 10 0
350 -337 376 -373 19 -27 19 -29 3 -47 -23 -25 -25 -61 -33 -545 l-7 -380
-111 -1 -112 -1 -7 173 c-4 95 -6 276 -3 402 3 195 6 233 21 255 9 14 17 33
17 41 0 21 -258 276 -278 276 -10 0 -37 -20 -62 -43 l-45 -42 -4 -527 -3 -526
-25 -5 c-14 -3 -66 -4 -117 -3 l-91 1 -6 560 c-3 308 -9 570 -13 582 -4 12
-14 24 -22 27 -23 9 -16 35 11 42 14 3 25 10 25 15 0 5 11 9 24 9 13 0 26 7
30 15 3 8 11 15 17 15 19 0 89 33 89 42 0 4 11 8 24 8 13 0 27 8 30 17 14 35
27 -6 34 -103z m1491 -609 l1 -621 -95 -1 c-76 -1 -95 1 -95 13 0 17 -10 18
-35 1 -14 -9 -59 -12 -147 -12 -122 1 -127 2 -147 26 -11 13 -20 35 -21 49 0
15 -5 31 -12 38 -17 17 -18 356 0 373 6 7 12 28 12 46 0 18 4 33 9 33 5 0 14
13 21 29 13 32 231 251 250 251 6 0 13 -7 16 -15 8 -20 40 -19 48 1 10 27 7
229 -5 262 -6 17 -17 33 -25 36 -21 8 -17 36 5 36 10 0 24 7 31 15 7 8 19 15
27 15 8 0 21 7 29 15 9 8 24 15 35 15 10 0 19 5 19 10 0 6 8 10 19 10 10 0 25
7 32 16 12 14 14 14 20 -3 4 -10 8 -297 8 -638z"/>
<path d="M1764 1446 c-17 -13 -19 -30 -22 -166 -2 -100 0 -156 7 -163 6 -6 11
-29 11 -52 0 -23 7 -50 15 -61 8 -10 15 -31 15 -45 0 -15 7 -32 15 -39 8 -7
15 -20 15 -29 0 -21 61 -81 82 -81 9 0 30 16 48 36 l32 36 -4 243 c-3 222 -5
245 -22 264 -11 12 -27 21 -38 21 -10 0 -18 5 -18 10 0 6 -8 10 -19 10 -10 0
-24 7 -31 15 -16 19 -60 19 -86 1z"/>
</g>
</svg>
